<svg width="24" height="24" viewBox="0 0 24 24" fill="none" xmlns="http://www.w3.org/2000/svg">
<path d="M18.9317 14.8633C18.6818 14.6134 18.4124 14.4221 18.1235 14.2894C17.8345 14.1566 17.5339 14.0902 17.2215 14.0902C16.9091 14.0902 16.6085 14.1566 16.3196 14.2894C16.0306 14.4221 15.7534 14.6134 15.4879 14.8633L13.8948 16.4564C13.8324 16.4252 13.766 16.3939 13.6957 16.3627C13.6254 16.3315 13.559 16.2924 13.4966 16.2456C13.4185 16.2143 13.3365 16.1753 13.2506 16.1284C13.1647 16.0816 13.0827 16.0347 13.0046 15.9879C12.2549 15.5193 11.5365 14.9688 10.8493 14.3362C10.1621 13.7037 9.49049 12.9892 8.83453 12.1926C8.52216 11.7866 8.25665 11.4117 8.038 11.0681C7.81934 10.7245 7.63193 10.3809 7.47574 10.0373C7.67878 9.84989 7.87791 9.65857 8.07314 9.46334C8.26837 9.26811 8.45969 9.07679 8.64711 8.88937C8.70958 8.81128 8.77986 8.73709 8.85796 8.66681C8.93605 8.59653 9.00633 8.52234 9.0688 8.44425C9.59982 7.91323 9.86533 7.33145 9.86533 6.69892C9.86533 6.06638 9.59982 5.4846 9.0688 4.95358L7.68659 3.57137C7.6085 3.49327 7.53041 3.41128 7.45232 3.32538C7.37422 3.23948 7.29613 3.15748 7.21804 3.07939C7.06186 2.92321 6.90568 2.76703 6.7495 2.61085C6.59331 2.45466 6.43713 2.29848 6.28095 2.1423C6.03106 1.89241 5.76164 1.70499 5.47271 1.58004C5.18377 1.4551 4.88312 1.39262 4.57075 1.39262C4.25839 1.39262 3.95774 1.4551 3.6688 1.58004C3.37986 1.70499 3.11045 1.89241 2.86056 2.1423C2.86056 2.1423 2.85275 2.1423 2.83713 2.1423L1.12694 3.89935C0.798953 4.21171 0.545157 4.56703 0.365547 4.96529C0.185938 5.36356 0.0727055 5.78915 0.0258509 6.24208C-0.036622 6.97614 0.0141372 7.67115 0.178129 8.32712C0.34212 8.98308 0.510016 9.53753 0.681816 9.99046C1.08789 11.0993 1.6072 12.1809 2.23973 13.2351C2.87227 14.2894 3.64147 15.3631 4.54733 16.4564C5.10958 17.128 5.69527 17.7527 6.30438 18.3306C6.91349 18.9241 7.54993 19.4824 8.2137 20.0056C8.87748 20.5289 9.56078 21.0091 10.2636 21.4464C10.982 21.8993 11.7239 22.3054 12.4892 22.6646C13.0671 22.9458 13.7347 23.223 14.4922 23.4963C15.2497 23.7696 16.0658 23.9375 16.9404 24C16.9872 24 17.038 24 17.0927 24C17.1473 24 17.2059 24 17.2684 24C17.8462 24 18.3812 23.8946 18.8731 23.6837C19.3651 23.4729 19.7985 23.1566 20.1734 22.7349C20.189 22.7349 20.1968 22.7349 20.1968 22.7349C20.1968 22.7349 20.1968 22.7271 20.1968 22.7115C20.3373 22.5553 20.4818 22.403 20.6302 22.2547C20.7786 22.1063 20.9308 21.954 21.087 21.7978C21.1964 21.7041 21.3057 21.6026 21.415 21.4933C21.5243 21.3839 21.6337 21.2668 21.743 21.1419C21.9929 20.892 22.1842 20.6187 22.317 20.3219C22.4497 20.0252 22.5161 19.7206 22.5161 19.4082C22.5161 19.0959 22.4497 18.7913 22.317 18.4946C22.1842 18.1978 21.9851 17.9167 21.7196 17.6512L18.9317 14.8633ZM20.759 20.2048C20.6497 20.3141 20.5443 20.4156 20.4428 20.5093C20.3413 20.603 20.2358 20.7046 20.1265 20.8139C19.9703 20.9701 19.8063 21.1341 19.6345 21.3059C19.4627 21.4777 19.2987 21.6495 19.1426 21.8213C18.8927 22.1024 18.6115 22.3093 18.2992 22.4421C17.9868 22.5748 17.6354 22.6412 17.2449 22.6412C17.2137 22.6412 17.1786 22.6412 17.1395 22.6412C17.1005 22.6412 17.0575 22.6412 17.0107 22.6412C16.261 22.5787 15.5465 22.4265 14.8671 22.1844C14.1877 21.9423 13.5903 21.6963 13.0749 21.4464C12.3564 21.1028 11.6614 20.7202 10.9898 20.2985C10.3183 19.8768 9.6701 19.4239 9.04537 18.9397C8.42065 18.4555 7.81934 17.9323 7.24147 17.3701C6.6636 16.8078 6.11696 16.2143 5.60156 15.5896C4.74255 14.5432 4.01631 13.528 3.42281 12.544C2.82932 11.5601 2.33735 10.5527 1.94689 9.52191C1.71262 8.89718 1.55253 8.32712 1.46663 7.81171C1.38073 7.29631 1.3534 6.81215 1.38464 6.35922C1.41587 6.06247 1.48615 5.78915 1.59548 5.53926C1.70481 5.28937 1.8688 5.06291 2.08746 4.85987L3.79765 3.12625C3.9226 3.0013 4.05145 2.9115 4.1842 2.85683C4.31696 2.80217 4.44581 2.77484 4.57075 2.77484C4.72694 2.77484 4.8714 2.81388 5.00416 2.89197C5.13691 2.97007 5.24234 3.04816 5.32043 3.12625C5.47661 3.28243 5.62889 3.43471 5.77726 3.58308C5.92563 3.73145 6.07791 3.88373 6.23409 4.03991C6.31219 4.118 6.39418 4.2 6.48008 4.2859C6.56598 4.3718 6.64798 4.4538 6.72607 4.53189L8.10828 5.9141C8.37379 6.17961 8.50655 6.44122 8.50655 6.69892C8.50655 6.95662 8.37379 7.21822 8.10828 7.48373C8.03019 7.56182 7.956 7.63601 7.88572 7.70629C7.81544 7.77657 7.74125 7.85076 7.66316 7.92885C7.46012 8.14751 7.25318 8.35835 7.04234 8.56139C6.83149 8.76443 6.61674 8.95965 6.39809 9.14707C6.39809 9.16269 6.39418 9.1705 6.38637 9.1705C6.37856 9.1705 6.37466 9.1705 6.37466 9.1705C6.156 9.38915 6.04668 9.6 6.04668 9.80304C6.04668 10.0061 6.0701 10.1779 6.11696 10.3184C6.11696 10.3341 6.11696 10.3458 6.11696 10.3536C6.11696 10.3614 6.12477 10.3653 6.14039 10.3653C6.31219 10.8026 6.53084 11.236 6.79635 11.6655C7.06186 12.095 7.38203 12.5518 7.75687 13.036H7.7803C8.4675 13.895 9.18594 14.6642 9.93561 15.3436C10.6853 16.023 11.4662 16.6204 12.2783 17.1358C12.3721 17.1983 12.4736 17.2568 12.5829 17.3115C12.6922 17.3662 12.7937 17.4169 12.8875 17.4638C12.9812 17.5106 13.071 17.5575 13.1569 17.6043C13.2428 17.6512 13.3248 17.698 13.4029 17.7449C13.4029 17.7449 13.4107 17.7488 13.4263 17.7566C13.4419 17.7644 13.4497 17.7683 13.4497 17.7683C13.5434 17.8152 13.6293 17.8503 13.7074 17.8738C13.7855 17.8972 13.8714 17.9089 13.9651 17.9089C14.1682 17.9089 14.336 17.862 14.4688 17.7683C14.6016 17.6746 14.6836 17.6043 14.7148 17.5575L16.4484 15.8239C16.5421 15.7302 16.6554 15.6443 16.7881 15.5662C16.9209 15.4881 17.0653 15.449 17.2215 15.449C17.3777 15.449 17.5183 15.4881 17.6432 15.5662C17.7682 15.6443 17.8697 15.7223 17.9478 15.8004C17.9478 15.8161 17.9478 15.8239 17.9478 15.8239C17.9478 15.8239 17.9556 15.8239 17.9712 15.8239L20.759 18.6117C21.0089 18.8772 21.1339 19.1427 21.1339 19.4082C21.1339 19.6738 21.0089 19.9393 20.759 20.2048ZM12.9343 5.70325C13.6059 5.8282 14.2384 6.04295 14.8319 6.34751C15.4254 6.65206 15.9642 7.04642 16.4484 7.53059C16.917 8.01475 17.3074 8.55358 17.6198 9.14707C17.9321 9.74056 18.143 10.3653 18.2523 11.0213C18.2836 11.1931 18.3616 11.3297 18.4866 11.4312C18.6115 11.5328 18.7599 11.5835 18.9317 11.5835C18.9473 11.5835 18.9629 11.5835 18.9786 11.5835C18.9942 11.5835 19.0176 11.5835 19.0488 11.5835C19.2363 11.5523 19.3846 11.4586 19.494 11.3024C19.6033 11.1462 19.6423 10.9744 19.6111 10.787C19.4705 9.99046 19.2128 9.23297 18.838 8.51453C18.4632 7.79609 17.9868 7.14794 17.4089 6.57006C16.8311 5.99219 16.1829 5.51583 15.4645 5.141C14.746 4.76616 13.9885 4.50846 13.192 4.3679C13.0046 4.33666 12.8328 4.37571 12.6766 4.48503C12.5204 4.59436 12.4267 4.74273 12.3955 4.93015C12.3642 5.10195 12.3994 5.26594 12.5009 5.42213C12.6024 5.57831 12.7469 5.67202 12.9343 5.70325ZM23.9452 10.5996C23.8358 9.92798 23.6718 9.27983 23.4532 8.6551C23.2501 8.03037 22.9964 7.42516 22.6918 6.83948C22.3872 6.2538 22.0397 5.68764 21.6493 5.141C21.2432 4.60998 20.8059 4.10239 20.3373 3.61822C19.8532 3.14968 19.3456 2.72017 18.8146 2.32972C18.2679 1.92365 17.7018 1.57224 17.1161 1.27549C16.5304 0.978743 15.9252 0.721041 15.3005 0.502386C14.6757 0.299349 14.0354 0.135359 13.3794 0.0104122C13.192 -0.0208244 13.0202 0.0182209 12.864 0.127548C12.7078 0.236876 12.6141 0.38525 12.5829 0.572668C12.5517 0.760086 12.5907 0.931887 12.7 1.08807C12.8094 1.24425 12.9577 1.33796 13.1452 1.3692C14.3321 1.57224 15.4528 1.94707 16.507 2.49371C17.5612 3.04035 18.5178 3.74317 19.3768 4.60217C20.2358 5.44555 20.9387 6.39826 21.4853 7.4603C22.0319 8.52234 22.399 9.63905 22.5864 10.8104C22.6176 10.9822 22.6996 11.1189 22.8324 11.2204C22.9651 11.3219 23.1096 11.3727 23.2658 11.3727C23.297 11.3727 23.3204 11.3727 23.336 11.3727C23.3517 11.3727 23.3673 11.3727 23.3829 11.3727C23.5703 11.3414 23.7187 11.2477 23.828 11.0915C23.9373 10.9354 23.9764 10.7714 23.9452 10.5996Z" fill="white"/>
</svg>
